<mxfile host="app.diagrams.net" agent="Mozilla/5.0 (Windows NT 10.0; Win64; x64) AppleWebKit/537.36 (KHTML, like Gecko) Chrome/133.0.0.0 Safari/537.36" version="26.0.15">
  <diagram name="第 1 页" id="hVekqMDqbVcK95e6SjbK">
    <mxGraphModel dx="546" dy="352" grid="1" gridSize="10" guides="1" tooltips="1" connect="1" arrows="1" fold="1" page="1" pageScale="1" pageWidth="827" pageHeight="1169" math="1" shadow="0">
      <root>
        <mxCell id="0" />
        <mxCell id="1" parent="0" />
        <mxCell id="9_Gs6y5gMMaMQOYIU1uz-2" value="" style="rounded=1;whiteSpace=wrap;html=1;fontFamily=Helvetica;fontSize=12;labelBackgroundColor=default;fillColor=#d5e8d4;strokeColor=#82b366;fillStyle=auto;opacity=80;" vertex="1" parent="1">
          <mxGeometry x="480" y="400" width="210" height="210" as="geometry" />
        </mxCell>
        <mxCell id="9_Gs6y5gMMaMQOYIU1uz-60" style="edgeStyle=none;shape=connector;rounded=0;orthogonalLoop=1;jettySize=auto;html=1;strokeColor=#808080;strokeWidth=1;align=center;verticalAlign=middle;fontFamily=Helvetica;fontSize=12;fontColor=default;labelBackgroundColor=default;startSize=8;endArrow=openThin;endFill=0;endSize=8;" edge="1" parent="1" source="9_Gs6y5gMMaMQOYIU1uz-5" target="9_Gs6y5gMMaMQOYIU1uz-13">
          <mxGeometry relative="1" as="geometry" />
        </mxCell>
        <mxCell id="9_Gs6y5gMMaMQOYIU1uz-61" style="edgeStyle=none;shape=connector;rounded=0;orthogonalLoop=1;jettySize=auto;html=1;strokeColor=#808080;strokeWidth=1;align=center;verticalAlign=middle;fontFamily=Helvetica;fontSize=12;fontColor=default;labelBackgroundColor=default;startSize=8;endArrow=openThin;endFill=0;endSize=8;" edge="1" parent="1" source="9_Gs6y5gMMaMQOYIU1uz-5" target="9_Gs6y5gMMaMQOYIU1uz-8">
          <mxGeometry relative="1" as="geometry" />
        </mxCell>
        <mxCell id="9_Gs6y5gMMaMQOYIU1uz-62" style="edgeStyle=none;shape=connector;rounded=0;orthogonalLoop=1;jettySize=auto;html=1;entryX=0;entryY=0;entryDx=0;entryDy=0;strokeColor=#808080;strokeWidth=1;align=center;verticalAlign=middle;fontFamily=Helvetica;fontSize=12;fontColor=default;labelBackgroundColor=default;startSize=8;endArrow=openThin;endFill=0;endSize=8;" edge="1" parent="1" source="9_Gs6y5gMMaMQOYIU1uz-5" target="9_Gs6y5gMMaMQOYIU1uz-21">
          <mxGeometry relative="1" as="geometry" />
        </mxCell>
        <mxCell id="9_Gs6y5gMMaMQOYIU1uz-65" style="edgeStyle=none;shape=connector;rounded=0;orthogonalLoop=1;jettySize=auto;html=1;entryX=0;entryY=0.5;entryDx=0;entryDy=0;strokeColor=#808080;strokeWidth=1;align=center;verticalAlign=middle;fontFamily=Helvetica;fontSize=12;fontColor=default;labelBackgroundColor=default;startSize=8;endArrow=openThin;endFill=0;endSize=8;" edge="1" parent="1" source="9_Gs6y5gMMaMQOYIU1uz-5" target="9_Gs6y5gMMaMQOYIU1uz-13">
          <mxGeometry relative="1" as="geometry" />
        </mxCell>
        <mxCell id="9_Gs6y5gMMaMQOYIU1uz-5" value="" style="ellipse;whiteSpace=wrap;html=1;aspect=fixed;fillColor=#b0e3e6;strokeColor=#0e8088;" vertex="1" parent="1">
          <mxGeometry x="503" y="455.5" width="25" height="25" as="geometry" />
        </mxCell>
        <mxCell id="9_Gs6y5gMMaMQOYIU1uz-64" style="edgeStyle=none;shape=connector;rounded=0;orthogonalLoop=1;jettySize=auto;html=1;entryX=0.5;entryY=0;entryDx=0;entryDy=0;strokeColor=#808080;strokeWidth=1;align=center;verticalAlign=middle;fontFamily=Helvetica;fontSize=12;fontColor=default;labelBackgroundColor=default;startSize=8;endArrow=openThin;endFill=0;endSize=8;" edge="1" parent="1" source="9_Gs6y5gMMaMQOYIU1uz-8" target="9_Gs6y5gMMaMQOYIU1uz-21">
          <mxGeometry relative="1" as="geometry" />
        </mxCell>
        <mxCell id="9_Gs6y5gMMaMQOYIU1uz-8" value="" style="ellipse;whiteSpace=wrap;html=1;aspect=fixed;fillColor=#ffe6cc;strokeColor=#d79b00;" vertex="1" parent="1">
          <mxGeometry x="583" y="408.5" width="25" height="25" as="geometry" />
        </mxCell>
        <mxCell id="9_Gs6y5gMMaMQOYIU1uz-66" style="edgeStyle=none;shape=connector;rounded=0;orthogonalLoop=1;jettySize=auto;html=1;entryX=0;entryY=1;entryDx=0;entryDy=0;strokeColor=#808080;strokeWidth=1;align=center;verticalAlign=middle;fontFamily=Helvetica;fontSize=12;fontColor=default;labelBackgroundColor=default;startSize=8;endArrow=openThin;endFill=0;endSize=8;" edge="1" parent="1" source="9_Gs6y5gMMaMQOYIU1uz-13" target="9_Gs6y5gMMaMQOYIU1uz-18">
          <mxGeometry relative="1" as="geometry" />
        </mxCell>
        <mxCell id="9_Gs6y5gMMaMQOYIU1uz-69" style="edgeStyle=none;shape=connector;rounded=0;orthogonalLoop=1;jettySize=auto;html=1;strokeColor=#808080;strokeWidth=1;align=center;verticalAlign=middle;fontFamily=Helvetica;fontSize=12;fontColor=default;labelBackgroundColor=default;startSize=8;endArrow=openThin;endFill=0;endSize=8;" edge="1" parent="1" source="9_Gs6y5gMMaMQOYIU1uz-13" target="9_Gs6y5gMMaMQOYIU1uz-68">
          <mxGeometry relative="1" as="geometry" />
        </mxCell>
        <mxCell id="9_Gs6y5gMMaMQOYIU1uz-13" value="" style="ellipse;whiteSpace=wrap;html=1;aspect=fixed;fillColor=#bac8d3;strokeColor=#23445d;" vertex="1" parent="1">
          <mxGeometry x="528" y="525" width="25" height="25" as="geometry" />
        </mxCell>
        <mxCell id="9_Gs6y5gMMaMQOYIU1uz-16" value="" style="ellipse;whiteSpace=wrap;html=1;aspect=fixed;fillColor=#d5e8d4;strokeColor=#82b366;" vertex="1" parent="1">
          <mxGeometry x="608" y="530" width="25" height="25" as="geometry" />
        </mxCell>
        <mxCell id="9_Gs6y5gMMaMQOYIU1uz-18" value="" style="ellipse;whiteSpace=wrap;html=1;aspect=fixed;fillColor=#e1d5e7;strokeColor=#9673a6;" vertex="1" parent="1">
          <mxGeometry x="573" y="498" width="25" height="25" as="geometry" />
        </mxCell>
        <mxCell id="9_Gs6y5gMMaMQOYIU1uz-63" style="edgeStyle=none;shape=connector;rounded=0;orthogonalLoop=1;jettySize=auto;html=1;strokeColor=#808080;strokeWidth=1;align=center;verticalAlign=middle;fontFamily=Helvetica;fontSize=12;fontColor=default;labelBackgroundColor=default;startSize=8;endArrow=openThin;endFill=0;endSize=8;" edge="1" parent="1" source="9_Gs6y5gMMaMQOYIU1uz-21" target="9_Gs6y5gMMaMQOYIU1uz-16">
          <mxGeometry relative="1" as="geometry" />
        </mxCell>
        <mxCell id="9_Gs6y5gMMaMQOYIU1uz-21" value="" style="ellipse;whiteSpace=wrap;html=1;aspect=fixed;fillColor=#dae8fc;strokeColor=#6c8ebf;" vertex="1" parent="1">
          <mxGeometry x="623" y="480.5" width="25" height="25" as="geometry" />
        </mxCell>
        <mxCell id="9_Gs6y5gMMaMQOYIU1uz-24" value="$$r_2,t_1$$" style="text;html=1;align=center;verticalAlign=middle;whiteSpace=wrap;rounded=0;fontFamily=Helvetica;fontSize=11;fontColor=default;labelBackgroundColor=none;rotation=0;" vertex="1" parent="1">
          <mxGeometry x="485.5" y="501" width="38" height="19" as="geometry" />
        </mxCell>
        <mxCell id="9_Gs6y5gMMaMQOYIU1uz-25" value="$$r_1,t_1$$" style="text;html=1;align=center;verticalAlign=middle;whiteSpace=wrap;rounded=0;fontFamily=Helvetica;fontSize=11;fontColor=default;labelBackgroundColor=none;" vertex="1" parent="1">
          <mxGeometry x="538" y="433.5" width="60" height="30" as="geometry" />
        </mxCell>
        <mxCell id="9_Gs6y5gMMaMQOYIU1uz-27" value="$$r_3,t_3$$" style="text;html=1;align=center;verticalAlign=middle;whiteSpace=wrap;rounded=0;fontFamily=Helvetica;fontSize=11;fontColor=default;labelBackgroundColor=none;" vertex="1" parent="1">
          <mxGeometry x="513" y="480.5" width="60" height="30" as="geometry" />
        </mxCell>
        <mxCell id="9_Gs6y5gMMaMQOYIU1uz-33" value="$$r_2,t_3$$" style="text;whiteSpace=wrap;html=1;" vertex="1" parent="1">
          <mxGeometry x="632" y="492" width="45" height="37" as="geometry" />
        </mxCell>
        <mxCell id="9_Gs6y5gMMaMQOYIU1uz-34" value="$$r_3,t_1$$" style="text;whiteSpace=wrap;html=1;" vertex="1" parent="1">
          <mxGeometry x="625" y="432" width="52" height="23.5" as="geometry" />
        </mxCell>
        <mxCell id="9_Gs6y5gMMaMQOYIU1uz-36" value="$$r_2,t_2$$" style="text;whiteSpace=wrap;html=1;" vertex="1" parent="1">
          <mxGeometry x="538" y="536" width="35" height="13" as="geometry" />
        </mxCell>
        <mxCell id="9_Gs6y5gMMaMQOYIU1uz-37" value="局部多跳连接&lt;div&gt;$$[t-m,t]$$&lt;/div&gt;" style="text;html=1;align=center;verticalAlign=middle;whiteSpace=wrap;rounded=0;fontFamily=Helvetica;fontSize=12;fontColor=default;labelBackgroundColor=none;" vertex="1" parent="1">
          <mxGeometry x="588" y="575" width="126" height="30" as="geometry" />
        </mxCell>
        <mxCell id="9_Gs6y5gMMaMQOYIU1uz-68" value="" style="ellipse;whiteSpace=wrap;html=1;aspect=fixed;fillColor=#fff2cc;strokeColor=#d6b656;" vertex="1" parent="1">
          <mxGeometry x="573" y="550" width="25" height="25" as="geometry" />
        </mxCell>
        <mxCell id="9_Gs6y5gMMaMQOYIU1uz-73" value="$$r_3,t_4$$" style="text;whiteSpace=wrap;html=1;" vertex="1" parent="1">
          <mxGeometry x="569.5" y="450" width="52" height="23.5" as="geometry" />
        </mxCell>
        <mxCell id="9_Gs6y5gMMaMQOYIU1uz-74" value="$$r_1,t_4$$" style="text;whiteSpace=wrap;html=1;" vertex="1" parent="1">
          <mxGeometry x="559.5" y="506.5" width="52" height="23.5" as="geometry" />
        </mxCell>
        <mxCell id="9_Gs6y5gMMaMQOYIU1uz-76" value="" style="rounded=1;whiteSpace=wrap;html=1;fontFamily=Helvetica;fontSize=12;labelBackgroundColor=default;fillColor=#d5e8d4;strokeColor=#82b366;fillStyle=auto;opacity=80;" vertex="1" parent="1">
          <mxGeometry x="480" y="710" width="210" height="210" as="geometry" />
        </mxCell>
        <mxCell id="9_Gs6y5gMMaMQOYIU1uz-77" style="edgeStyle=none;shape=connector;rounded=0;orthogonalLoop=1;jettySize=auto;html=1;strokeColor=#808080;strokeWidth=1;align=center;verticalAlign=middle;fontFamily=Helvetica;fontSize=12;fontColor=default;labelBackgroundColor=default;startSize=8;endArrow=openThin;endFill=0;endSize=8;" edge="1" parent="1" source="9_Gs6y5gMMaMQOYIU1uz-81" target="9_Gs6y5gMMaMQOYIU1uz-86">
          <mxGeometry relative="1" as="geometry" />
        </mxCell>
        <mxCell id="9_Gs6y5gMMaMQOYIU1uz-78" style="edgeStyle=none;shape=connector;rounded=0;orthogonalLoop=1;jettySize=auto;html=1;strokeColor=#808080;strokeWidth=1;align=center;verticalAlign=middle;fontFamily=Helvetica;fontSize=12;fontColor=default;labelBackgroundColor=default;startSize=8;endArrow=openThin;endFill=0;endSize=8;" edge="1" parent="1" source="9_Gs6y5gMMaMQOYIU1uz-81" target="9_Gs6y5gMMaMQOYIU1uz-83">
          <mxGeometry relative="1" as="geometry" />
        </mxCell>
        <mxCell id="9_Gs6y5gMMaMQOYIU1uz-79" style="edgeStyle=none;shape=connector;rounded=0;orthogonalLoop=1;jettySize=auto;html=1;entryX=0;entryY=0;entryDx=0;entryDy=0;strokeColor=#808080;strokeWidth=1;align=center;verticalAlign=middle;fontFamily=Helvetica;fontSize=12;fontColor=default;labelBackgroundColor=default;startSize=8;endArrow=openThin;endFill=0;endSize=8;" edge="1" parent="1" source="9_Gs6y5gMMaMQOYIU1uz-81" target="9_Gs6y5gMMaMQOYIU1uz-90">
          <mxGeometry relative="1" as="geometry" />
        </mxCell>
        <mxCell id="9_Gs6y5gMMaMQOYIU1uz-80" style="edgeStyle=none;shape=connector;rounded=0;orthogonalLoop=1;jettySize=auto;html=1;entryX=0;entryY=0.5;entryDx=0;entryDy=0;strokeColor=#808080;strokeWidth=1;align=center;verticalAlign=middle;fontFamily=Helvetica;fontSize=12;fontColor=default;labelBackgroundColor=default;startSize=8;endArrow=openThin;endFill=0;endSize=8;" edge="1" parent="1" source="9_Gs6y5gMMaMQOYIU1uz-81" target="9_Gs6y5gMMaMQOYIU1uz-86">
          <mxGeometry relative="1" as="geometry" />
        </mxCell>
        <mxCell id="9_Gs6y5gMMaMQOYIU1uz-81" value="" style="ellipse;whiteSpace=wrap;html=1;aspect=fixed;fillColor=#b0e3e6;strokeColor=#0e8088;" vertex="1" parent="1">
          <mxGeometry x="503" y="765.5" width="25" height="25" as="geometry" />
        </mxCell>
        <mxCell id="9_Gs6y5gMMaMQOYIU1uz-83" value="" style="ellipse;whiteSpace=wrap;html=1;aspect=fixed;fillColor=#ffe6cc;strokeColor=#d79b00;" vertex="1" parent="1">
          <mxGeometry x="611.5" y="748.5" width="25" height="25" as="geometry" />
        </mxCell>
        <mxCell id="9_Gs6y5gMMaMQOYIU1uz-86" value="" style="ellipse;whiteSpace=wrap;html=1;aspect=fixed;fillColor=#bac8d3;strokeColor=#23445d;" vertex="1" parent="1">
          <mxGeometry x="553" y="850" width="25" height="25" as="geometry" />
        </mxCell>
        <mxCell id="9_Gs6y5gMMaMQOYIU1uz-90" value="" style="ellipse;whiteSpace=wrap;html=1;aspect=fixed;fillColor=#dae8fc;strokeColor=#6c8ebf;" vertex="1" parent="1">
          <mxGeometry x="600" y="820.5" width="25" height="25" as="geometry" />
        </mxCell>
        <mxCell id="9_Gs6y5gMMaMQOYIU1uz-91" value="$$r_2,t_1$$" style="text;html=1;align=center;verticalAlign=middle;whiteSpace=wrap;rounded=0;fontFamily=Helvetica;fontSize=11;fontColor=default;labelBackgroundColor=none;rotation=0;" vertex="1" parent="1">
          <mxGeometry x="496.5" y="811" width="38" height="19" as="geometry" />
        </mxCell>
        <mxCell id="9_Gs6y5gMMaMQOYIU1uz-92" value="$$r_1,t_1$$" style="text;html=1;align=center;verticalAlign=middle;whiteSpace=wrap;rounded=0;fontFamily=Helvetica;fontSize=11;fontColor=default;labelBackgroundColor=none;" vertex="1" parent="1">
          <mxGeometry x="538" y="743.5" width="60" height="30" as="geometry" />
        </mxCell>
        <mxCell id="9_Gs6y5gMMaMQOYIU1uz-93" value="$$r_3,t_3$$" style="text;html=1;align=center;verticalAlign=middle;whiteSpace=wrap;rounded=0;fontFamily=Helvetica;fontSize=11;fontColor=default;labelBackgroundColor=none;" vertex="1" parent="1">
          <mxGeometry x="513" y="790.5" width="60" height="30" as="geometry" />
        </mxCell>
        <mxCell id="9_Gs6y5gMMaMQOYIU1uz-97" value="全局一跳连接&lt;div&gt;$$[0,t]$$&lt;/div&gt;" style="text;html=1;align=center;verticalAlign=middle;whiteSpace=wrap;rounded=0;fontFamily=Helvetica;fontSize=12;fontColor=default;labelBackgroundColor=none;" vertex="1" parent="1">
          <mxGeometry x="588" y="885" width="126" height="30" as="geometry" />
        </mxCell>
        <mxCell id="9_Gs6y5gMMaMQOYIU1uz-99" value="$$r_3,t_4$$" style="text;whiteSpace=wrap;html=1;" vertex="1" parent="1">
          <mxGeometry x="569.5" y="760" width="52" height="23.5" as="geometry" />
        </mxCell>
      </root>
    </mxGraphModel>
  </diagram>
</mxfile>
